# MagicaVoxel @ Ephtracy

# group
o 

# material
mtllib chel.mtl
usemtl palette

# normals
vn -1 0 0
vn 1 0 0
vn 0 0 1
vn 0 0 -1
vn 0 -1 0
vn 0 1 0

# texcoords
vt 0.0644531 0.5
vt 0.0683594 0.5
vt 0.369141 0.5
vt 0.373047 0.5
vt 0.509766 0.5
vt 0.841797 0.5
vt 0.970703 0.5
vt 0.982422 0.5

# verts
v -1 0.7 -0.2
v -1 0.7 -0.5
v -1 1.4 -0.2
v -1 1.4 -0.5
v -0.9 0.7 -0.1
v -0.9 0.7 -0.2
v -0.9 0.7 -0.5
v -0.9 0.7 -0.6
v -0.9 1.3 -0.1
v -0.9 1.3 -0.2
v -0.9 1.3 -0.5
v -0.9 1.3 -0.6
v -0.7 0 -0.2
v -0.7 0 -0.5
v -0.7 0.4 -0.2
v -0.7 0.4 -0.5
v -0.7 0.6 -0.2
v -0.7 0.6 -0.5
v -0.7 1.2 -0.5
v -0.7 1.2 -0.6
v -0.7 1.3 -0.1
v -0.7 1.3 -0.2
v -0.7 1.4 -0.2
v -0.7 1.4 -0.5
v -0.7 1.5 -0.1
v -0.7 1.5 -0.6
v -0.6 0.5 -0.1
v -0.6 0.5 -0.2
v -0.6 0.6 -0.2
v -0.6 0.6 -0.5
v -0.6 0.6 -0.6
v -0.6 1.1 -0.2
v -0.6 1.1 -0.5
v -0.6 1.2 -0.5
v -0.6 1.2 -0.6
v -0.6 1.3 -0.1
v -0.6 1.3 -0.2
v -0.6 1.5 -0.2
v -0.6 1.5 -0.6
v -0.6 1.5 -0.9
v -0.6 1.7 -0.2
v -0.6 1.7 -0.3
v -0.6 1.8 -0.3
v -0.6 1.8 -0.4
v -0.6 1.9 -0.4
v -0.6 1.9 -0.7
v -0.6 2 -0.7
v -0.6 2 -0.9
v -0.6 2.1 -0.2
v -0.6 2.1 -0.9
v -0.4 1.3 -0.5
v -0.4 1.3 -0.6
v -0.4 1.4 -0.2
v -0.4 1.4 -0.5
v -0.4 1.5 -0.2
v -0.4 1.5 -0.6
v 1.19209e-07 0 -0.2
v 1.19209e-07 0 -0.5
v 1.19209e-07 0.4 -0.2
v 1.19209e-07 0.4 -0.5
v 1.19209e-07 0.5 -0.2
v 1.19209e-07 0.5 -0.5
v 0.2 1.3 -0.5
v 0.2 1.3 -0.6
v 0.2 1.4 -0.1
v 0.2 1.4 -0.2
v 0.2 1.4 -0.5
v 0.2 1.5 -0.1
v 0.2 1.5 -0.2
v 0.2 1.5 -0.6
v 0.3 0.7 -0.2
v 0.3 0.7 -0.5
v 0.3 1.1 -0.2
v 0.3 1.1 -0.5
v 0.4 0.7 -0.1
v 0.4 0.7 -0.2
v 0.4 0.7 -0.5
v 0.4 0.7 -0.6
v 0.4 1.3 -0.1
v 0.4 1.3 -0.2
v 0.4 1.3 -0.5
v 0.4 1.3 -0.6
v -0.8 0.7 -0.1
v -0.8 0.7 -0.2
v -0.8 0.7 -0.5
v -0.8 0.7 -0.6
v -0.8 1.3 -0.1
v -0.8 1.3 -0.2
v -0.8 1.3 -0.5
v -0.8 1.3 -0.6
v -0.7 0.7 -0.2
v -0.7 0.7 -0.5
v -0.7 1.1 -0.2
v -0.7 1.1 -0.5
v -0.6 1.3 -0.5
v -0.6 1.3 -0.6
v -0.6 1.4 -0.1
v -0.6 1.4 -0.2
v -0.6 1.4 -0.5
v -0.6 1.5 -0.1
v -0.6 1.5 -0.2
v -0.6 1.5 -0.6
v -0.4 0 -0.2
v -0.4 0 -0.5
v -0.4 0.4 -0.2
v -0.4 0.4 -0.5
v -0.4 0.5 -0.2
v -0.4 0.5 -0.5
v 1.19209e-07 1.3 -0.5
v 1.19209e-07 1.3 -0.6
v 1.19209e-07 1.4 -0.2
v 1.19209e-07 1.4 -0.5
v 1.19209e-07 1.5 -0.2
v 1.19209e-07 1.5 -0.6
v 0.2 0.5 -0.1
v 0.2 0.5 -0.2
v 0.2 0.6 -0.2
v 0.2 0.6 -0.5
v 0.2 0.6 -0.6
v 0.2 1.1 -0.2
v 0.2 1.1 -0.5
v 0.2 1.2 -0.5
v 0.2 1.2 -0.6
v 0.2 1.3 -0.1
v 0.2 1.3 -0.2
v 0.2 1.5 -0.2
v 0.2 1.5 -0.6
v 0.2 1.5 -0.9
v 0.2 1.7 -0.2
v 0.2 1.7 -0.3
v 0.2 1.8 -0.3
v 0.2 1.8 -0.4
v 0.2 1.9 -0.4
v 0.2 1.9 -0.7
v 0.2 2 -0.7
v 0.2 2 -0.9
v 0.2 2.1 -0.2
v 0.2 2.1 -0.9
v 0.3 0 -0.2
v 0.3 0 -0.5
v 0.3 0.4 -0.2
v 0.3 0.4 -0.5
v 0.3 0.6 -0.2
v 0.3 0.6 -0.5
v 0.3 1.2 -0.5
v 0.3 1.2 -0.6
v 0.3 1.3 -0.1
v 0.3 1.3 -0.2
v 0.3 1.4 -0.2
v 0.3 1.4 -0.5
v 0.3 1.5 -0.1
v 0.3 1.5 -0.6
v 0.5 0.7 -0.1
v 0.5 0.7 -0.2
v 0.5 0.7 -0.5
v 0.5 0.7 -0.6
v 0.5 1.3 -0.1
v 0.5 1.3 -0.2
v 0.5 1.3 -0.5
v 0.5 1.3 -0.6
v 0.6 0.7 -0.2
v 0.6 0.7 -0.5
v 0.6 1.4 -0.2
v 0.6 1.4 -0.5
v -0.9 0.7 -0.1
v -0.9 1.3 -0.1
v -0.8 0.7 -0.1
v -0.8 1.3 -0.1
v -0.7 1.3 -0.1
v -0.7 1.5 -0.1
v -0.6 0.5 -0.1
v -0.6 1.3 -0.1
v -0.6 1.4 -0.1
v -0.6 1.5 -0.1
v 0.2 0.5 -0.1
v 0.2 1.3 -0.1
v 0.2 1.4 -0.1
v 0.2 1.5 -0.1
v 0.3 1.3 -0.1
v 0.3 1.5 -0.1
v 0.4 0.7 -0.1
v 0.4 1.3 -0.1
v 0.5 0.7 -0.1
v 0.5 1.3 -0.1
v -1 0.7 -0.2
v -1 1.4 -0.2
v -0.9 0.7 -0.2
v -0.9 1.3 -0.2
v -0.8 0.7 -0.2
v -0.8 1.3 -0.2
v -0.7 0 -0.2
v -0.7 0.4 -0.2
v -0.7 0.6 -0.2
v -0.7 0.7 -0.2
v -0.7 1.1 -0.2
v -0.7 1.3 -0.2
v -0.7 1.4 -0.2
v -0.6 0.5 -0.2
v -0.6 0.6 -0.2
v -0.6 1.1 -0.2
v -0.6 1.3 -0.2
v -0.6 1.5 -0.2
v -0.6 1.7 -0.2
v -0.6 2.1 -0.2
v -0.4 0 -0.2
v -0.4 0.4 -0.2
v -0.4 0.5 -0.2
v -0.4 1.4 -0.2
v -0.4 1.5 -0.2
v -0.4 1.6 -0.2
v -0.4 1.7 -0.2
v 1.19209e-07 0 -0.2
v 1.19209e-07 0.4 -0.2
v 1.19209e-07 0.5 -0.2
v 1.19209e-07 1.4 -0.2
v 1.19209e-07 1.5 -0.2
v 0.1 1.6 -0.2
v 0.1 1.7 -0.2
v 0.2 0.5 -0.2
v 0.2 0.6 -0.2
v 0.2 1.1 -0.2
v 0.2 1.3 -0.2
v 0.2 1.5 -0.2
v 0.2 1.7 -0.2
v 0.2 2.1 -0.2
v 0.3 0 -0.2
v 0.3 0.4 -0.2
v 0.3 0.6 -0.2
v 0.3 0.7 -0.2
v 0.3 1.1 -0.2
v 0.3 1.3 -0.2
v 0.3 1.4 -0.2
v 0.4 0.7 -0.2
v 0.4 1.3 -0.2
v 0.5 0.7 -0.2
v 0.5 1.3 -0.2
v 0.6 0.7 -0.2
v 0.6 1.4 -0.2
v -1 0.7 -0.5
v -1 1.4 -0.5
v -0.9 0.7 -0.5
v -0.9 1.3 -0.5
v -0.8 0.7 -0.5
v -0.8 1.3 -0.5
v -0.7 0 -0.5
v -0.7 0.4 -0.5
v -0.7 0.6 -0.5
v -0.7 0.7 -0.5
v -0.7 1.1 -0.5
v -0.7 1.2 -0.5
v -0.7 1.4 -0.5
v -0.6 0.6 -0.5
v -0.6 1.1 -0.5
v -0.6 1.2 -0.5
v -0.6 1.3 -0.5
v -0.6 1.4 -0.5
v -0.4 0 -0.5
v -0.4 0.4 -0.5
v -0.4 0.5 -0.5
v -0.4 1.3 -0.5
v -0.4 1.4 -0.5
v 1.19209e-07 0 -0.5
v 1.19209e-07 0.4 -0.5
v 1.19209e-07 0.5 -0.5
v 1.19209e-07 1.3 -0.5
v 1.19209e-07 1.4 -0.5
v 0.2 0.6 -0.5
v 0.2 1.1 -0.5
v 0.2 1.2 -0.5
v 0.2 1.3 -0.5
v 0.2 1.4 -0.5
v 0.3 0 -0.5
v 0.3 0.4 -0.5
v 0.3 0.6 -0.5
v 0.3 0.7 -0.5
v 0.3 1.1 -0.5
v 0.3 1.2 -0.5
v 0.3 1.4 -0.5
v 0.4 0.7 -0.5
v 0.4 1.3 -0.5
v 0.5 0.7 -0.5
v 0.5 1.3 -0.5
v 0.6 0.7 -0.5
v 0.6 1.4 -0.5
v -0.9 0.7 -0.6
v -0.9 1.3 -0.6
v -0.8 0.7 -0.6
v -0.8 1.3 -0.6
v -0.7 1.2 -0.6
v -0.7 1.5 -0.6
v -0.6 0.6 -0.6
v -0.6 1.2 -0.6
v -0.6 1.3 -0.6
v -0.6 1.5 -0.6
v -0.4 1.3 -0.6
v -0.4 1.5 -0.6
v 1.19209e-07 1.3 -0.6
v 1.19209e-07 1.5 -0.6
v 0.2 0.6 -0.6
v 0.2 1.2 -0.6
v 0.2 1.3 -0.6
v 0.2 1.5 -0.6
v 0.3 1.2 -0.6
v 0.3 1.5 -0.6
v 0.4 0.7 -0.6
v 0.4 1.3 -0.6
v 0.5 0.7 -0.6
v 0.5 1.3 -0.6
v -0.6 1.5 -0.9
v -0.6 2 -0.9
v -0.6 2.1 -0.9
v -0.5 1.8 -0.9
v -0.5 1.9 -0.9
v -0.5 2 -0.9
v -0.5 2.1 -0.9
v -0.4 1.6 -0.9
v -0.4 1.7 -0.9
v -0.4 1.8 -0.9
v -0.4 1.9 -0.9
v -0.4 2 -0.9
v -0.3 1.5 -0.9
v -0.3 1.6 -0.9
v -0.3 1.7 -0.9
v -0.0999999 1.5 -0.9
v -0.0999999 1.6 -0.9
v -0.0999999 1.7 -0.9
v -0.0999999 2 -0.9
v -0.0999999 2.1 -0.9
v 1.19209e-07 1.6 -0.9
v 1.19209e-07 1.7 -0.9
v 1.19209e-07 1.8 -0.9
v 1.19209e-07 1.9 -0.9
v 1.19209e-07 2 -0.9
v 0.1 1.8 -0.9
v 0.1 1.9 -0.9
v 0.1 2 -0.9
v 0.2 1.5 -0.9
v 0.2 2 -0.9
v 0.2 2.1 -0.9
v -0.7 0 -0.2
v -0.4 0 -0.2
v 1.19209e-07 0 -0.2
v 0.3 0 -0.2
v -0.7 0 -0.5
v -0.4 0 -0.5
v 1.19209e-07 0 -0.5
v 0.3 0 -0.5
v -0.6 0.5 -0.1
v 0.2 0.5 -0.1
v -0.6 0.5 -0.2
v -0.4 0.5 -0.2
v 1.19209e-07 0.5 -0.2
v 0.2 0.5 -0.2
v -0.4 0.5 -0.5
v 1.19209e-07 0.5 -0.5
v -0.6 0.6 -0.5
v 0.2 0.6 -0.5
v -0.6 0.6 -0.6
v 0.2 0.6 -0.6
v -0.9 0.7 -0.1
v -0.8 0.7 -0.1
v 0.4 0.7 -0.1
v 0.5 0.7 -0.1
v -1 0.7 -0.2
v -0.9 0.7 -0.2
v -0.8 0.7 -0.2
v -0.7 0.7 -0.2
v 0.3 0.7 -0.2
v 0.4 0.7 -0.2
v 0.5 0.7 -0.2
v 0.6 0.7 -0.2
v -1 0.7 -0.5
v -0.9 0.7 -0.5
v -0.8 0.7 -0.5
v -0.7 0.7 -0.5
v 0.3 0.7 -0.5
v 0.4 0.7 -0.5
v 0.5 0.7 -0.5
v 0.6 0.7 -0.5
v -0.9 0.7 -0.6
v -0.8 0.7 -0.6
v 0.4 0.7 -0.6
v 0.5 0.7 -0.6
v -0.7 1.1 -0.2
v -0.6 1.1 -0.2
v 0.2 1.1 -0.2
v 0.3 1.1 -0.2
v -0.7 1.1 -0.5
v -0.6 1.1 -0.5
v 0.2 1.1 -0.5
v 0.3 1.1 -0.5
v -0.7 1.2 -0.5
v -0.6 1.2 -0.5
v 0.2 1.2 -0.5
v 0.3 1.2 -0.5
v -0.7 1.2 -0.6
v -0.6 1.2 -0.6
v 0.2 1.2 -0.6
v 0.3 1.2 -0.6
v -0.7 1.3 -0.1
v -0.6 1.3 -0.1
v 0.2 1.3 -0.1
v 0.3 1.3 -0.1
v -0.7 1.3 -0.2
v -0.6 1.3 -0.2
v 0.2 1.3 -0.2
v 0.3 1.3 -0.2
v -0.6 1.5 -0.2
v -0.4 1.5 -0.2
v 1.19209e-07 1.5 -0.2
v 0.2 1.5 -0.2
v -0.6 1.5 -0.6
v -0.4 1.5 -0.6
v 1.19209e-07 1.5 -0.6
v 0.2 1.5 -0.6
v -0.3 1.5 -0.8
v -0.0999999 1.5 -0.8
v -0.6 1.5 -0.9
v -0.3 1.5 -0.9
v -0.0999999 1.5 -0.9
v 0.2 1.5 -0.9
v -0.7 0.6 -0.2
v -0.6 0.6 -0.2
v 0.2 0.6 -0.2
v 0.3 0.6 -0.2
v -0.7 0.6 -0.5
v -0.6 0.6 -0.5
v 0.2 0.6 -0.5
v 0.3 0.6 -0.5
v -0.9 1.3 -0.1
v -0.8 1.3 -0.1
v 0.4 1.3 -0.1
v 0.5 1.3 -0.1
v -0.9 1.3 -0.2
v -0.8 1.3 -0.2
v 0.4 1.3 -0.2
v 0.5 1.3 -0.2
v -0.9 1.3 -0.5
v -0.8 1.3 -0.5
v -0.6 1.3 -0.5
v -0.4 1.3 -0.5
v 1.19209e-07 1.3 -0.5
v 0.2 1.3 -0.5
v 0.4 1.3 -0.5
v 0.5 1.3 -0.5
v -0.9 1.3 -0.6
v -0.8 1.3 -0.6
v -0.6 1.3 -0.6
v -0.4 1.3 -0.6
v 1.19209e-07 1.3 -0.6
v 0.2 1.3 -0.6
v 0.4 1.3 -0.6
v 0.5 1.3 -0.6
v -0.6 1.4 -0.1
v 0.2 1.4 -0.1
v -1 1.4 -0.2
v -0.7 1.4 -0.2
v -0.6 1.4 -0.2
v -0.4 1.4 -0.2
v 1.19209e-07 1.4 -0.2
v 0.2 1.4 -0.2
v 0.3 1.4 -0.2
v 0.6 1.4 -0.2
v -1 1.4 -0.5
v -0.7 1.4 -0.5
v -0.6 1.4 -0.5
v -0.4 1.4 -0.5
v 1.19209e-07 1.4 -0.5
v 0.2 1.4 -0.5
v 0.3 1.4 -0.5
v 0.6 1.4 -0.5
v -0.7 1.5 -0.1
v -0.6 1.5 -0.1
v 0.2 1.5 -0.1
v 0.3 1.5 -0.1
v -0.6 1.5 -0.2
v 0.2 1.5 -0.2
v -0.7 1.5 -0.6
v -0.6 1.5 -0.6
v 0.2 1.5 -0.6
v 0.3 1.5 -0.6
v -0.6 2.1 -0.2
v 0.2 2.1 -0.2
v -0.4 2.1 -0.7
v -0.3 2.1 -0.7
v -0.5 2.1 -0.8
v -0.4 2.1 -0.8
v -0.3 2.1 -0.8
v -0.0999999 2.1 -0.8
v -0.6 2.1 -0.9
v -0.5 2.1 -0.9
v -0.0999999 2.1 -0.9
v 0.2 2.1 -0.9

# faces
f 3/1/1 2/1/1 1/1/1
f 4/1/1 2/1/1 3/1/1
f 9/1/1 6/1/1 5/1/1
f 10/1/1 6/1/1 9/1/1
f 11/1/1 8/1/1 7/1/1
f 12/1/1 8/1/1 11/1/1
f 15/2/1 14/2/1 13/2/1
f 16/2/1 14/2/1 15/2/1
f 17/4/1 16/4/1 15/4/1
f 18/4/1 16/4/1 17/4/1
f 23/5/1 22/5/1 21/5/1
f 24/5/1 20/5/1 19/5/1
f 25/5/1 23/5/1 21/5/1
f 25/5/1 24/5/1 23/5/1
f 26/5/1 20/5/1 24/5/1
f 26/5/1 24/5/1 25/5/1
f 29/5/1 28/5/1 27/5/1
f 32/5/1 29/5/1 27/5/1
f 32/4/1 30/4/1 29/4/1
f 33/5/1 31/5/1 30/5/1
f 33/4/1 30/4/1 32/4/1
f 34/5/1 31/5/1 33/5/1
f 35/5/1 31/5/1 34/5/1
f 36/5/1 32/5/1 27/5/1
f 37/5/1 32/5/1 36/5/1
f 41/1/1 39/1/1 38/1/1
f 41/1/1 40/1/1 39/1/1
f 42/1/1 40/1/1 41/1/1
f 43/3/1 42/3/1 41/3/1
f 43/1/1 40/1/1 42/1/1
f 44/1/1 40/1/1 43/1/1
f 45/3/1 44/3/1 43/3/1
f 45/1/1 40/1/1 44/1/1
f 46/1/1 40/1/1 45/1/1
f 47/3/1 46/3/1 45/3/1
f 47/1/1 40/1/1 46/1/1
f 48/1/1 40/1/1 47/1/1
f 49/3/1 43/3/1 41/3/1
f 49/3/1 45/3/1 43/3/1
f 49/3/1 48/3/1 47/3/1
f 49/3/1 47/3/1 45/3/1
f 50/3/1 48/3/1 49/3/1
f 54/1/1 52/1/1 51/1/1
f 55/1/1 54/1/1 53/1/1
f 56/1/1 52/1/1 54/1/1
f 56/1/1 54/1/1 55/1/1
f 59/2/1 58/2/1 57/2/1
f 60/2/1 58/2/1 59/2/1
f 61/4/1 60/4/1 59/4/1
f 62/4/1 60/4/1 61/4/1
f 67/5/1 64/5/1 63/5/1
f 68/5/1 66/5/1 65/5/1
f 68/5/1 67/5/1 66/5/1
f 69/5/1 67/5/1 68/5/1
f 70/5/1 64/5/1 67/5/1
f 70/5/1 67/5/1 69/5/1
f 73/1/1 72/1/1 71/1/1
f 74/1/1 72/1/1 73/1/1
f 79/1/1 76/1/1 75/1/1
f 80/1/1 76/1/1 79/1/1
f 81/1/1 78/1/1 77/1/1
f 82/1/1 78/1/1 81/1/1
f 83/1/2 84/1/2 87/1/2
f 87/1/2 84/1/2 88/1/2
f 85/1/2 86/1/2 89/1/2
f 89/1/2 86/1/2 90/1/2
f 91/1/2 92/1/2 93/1/2
f 93/1/2 92/1/2 94/1/2
f 95/5/2 96/5/2 99/5/2
f 97/5/2 98/5/2 100/5/2
f 98/5/2 99/5/2 100/5/2
f 100/5/2 99/5/2 101/5/2
f 99/5/2 96/5/2 102/5/2
f 101/5/2 99/5/2 102/5/2
f 103/2/2 104/2/2 105/2/2
f 105/2/2 104/2/2 106/2/2
f 105/4/2 106/4/2 107/4/2
f 107/4/2 106/4/2 108/4/2
f 109/1/2 110/1/2 112/1/2
f 111/1/2 112/1/2 113/1/2
f 112/1/2 110/1/2 114/1/2
f 113/1/2 112/1/2 114/1/2
f 115/5/2 116/5/2 117/5/2
f 115/5/2 117/5/2 120/5/2
f 117/4/2 118/4/2 120/4/2
f 118/5/2 119/5/2 121/5/2
f 120/4/2 118/4/2 121/4/2
f 121/5/2 119/5/2 122/5/2
f 122/5/2 119/5/2 123/5/2
f 115/5/2 120/5/2 124/5/2
f 124/5/2 120/5/2 125/5/2
f 126/1/2 127/1/2 129/1/2
f 127/1/2 128/1/2 129/1/2
f 129/1/2 128/1/2 130/1/2
f 129/3/2 130/3/2 131/3/2
f 130/1/2 128/1/2 131/1/2
f 131/1/2 128/1/2 132/1/2
f 131/3/2 132/3/2 133/3/2
f 132/1/2 128/1/2 133/1/2
f 133/1/2 128/1/2 134/1/2
f 133/3/2 134/3/2 135/3/2
f 134/1/2 128/1/2 135/1/2
f 135/1/2 128/1/2 136/1/2
f 129/3/2 131/3/2 137/3/2
f 131/3/2 133/3/2 137/3/2
f 135/3/2 136/3/2 137/3/2
f 133/3/2 135/3/2 137/3/2
f 137/3/2 136/3/2 138/3/2
f 139/2/2 140/2/2 141/2/2
f 141/2/2 140/2/2 142/2/2
f 141/4/2 142/4/2 143/4/2
f 143/4/2 142/4/2 144/4/2
f 147/5/2 148/5/2 149/5/2
f 145/5/2 146/5/2 150/5/2
f 147/5/2 149/5/2 151/5/2
f 149/5/2 150/5/2 151/5/2
f 150/5/2 146/5/2 152/5/2
f 151/5/2 150/5/2 152/5/2
f 153/1/2 154/1/2 157/1/2
f 157/1/2 154/1/2 158/1/2
f 155/1/2 156/1/2 159/1/2
f 159/1/2 156/1/2 160/1/2
f 161/1/2 162/1/2 163/1/2
f 163/1/2 162/1/2 164/1/2
f 167/1/3 166/1/3 165/1/3
f 168/1/3 166/1/3 167/1/3
f 172/5/3 170/5/3 169/5/3
f 173/5/3 170/5/3 172/5/3
f 174/5/3 170/5/3 173/5/3
f 175/5/3 172/5/3 171/5/3
f 175/5/3 173/5/3 172/5/3
f 176/5/3 173/5/3 175/5/3
f 177/5/3 173/5/3 176/5/3
f 179/5/3 178/5/3 177/5/3
f 179/5/3 177/5/3 176/5/3
f 180/5/3 178/5/3 179/5/3
f 183/1/3 182/1/3 181/1/3
f 184/1/3 182/1/3 183/1/3
f 187/1/3 186/1/3 185/1/3
f 188/1/3 186/1/3 187/1/3
f 190/1/3 186/1/3 188/1/3
f 194/1/3 190/1/3 189/1/3
f 195/1/3 190/1/3 194/1/3
f 196/1/3 186/1/3 190/1/3
f 196/1/3 190/1/3 195/1/3
f 197/1/3 186/1/3 196/1/3
f 198/4/3 193/4/3 192/4/3
f 199/4/3 193/4/3 198/4/3
f 200/4/3 196/4/3 195/4/3
f 201/4/3 196/4/3 200/4/3
f 205/2/3 192/2/3 191/2/3
f 206/4/3 198/4/3 192/4/3
f 206/2/3 192/2/3 205/2/3
f 207/4/3 198/4/3 206/4/3
f 209/1/3 203/1/3 202/1/3
f 210/1/3 203/1/3 209/1/3
f 211/3/3 204/3/3 203/3/3
f 211/1/3 203/1/3 210/1/3
f 215/1/3 210/1/3 209/1/3
f 215/1/3 209/1/3 208/1/3
f 216/1/3 210/1/3 215/1/3
f 217/3/3 211/3/3 210/3/3
f 217/1/3 210/1/3 216/1/3
f 218/3/3 204/3/3 211/3/3
f 218/3/3 211/3/3 217/3/3
f 219/4/3 214/4/3 213/4/3
f 223/1/3 217/1/3 216/1/3
f 223/1/3 218/1/3 217/1/3
f 224/3/3 204/3/3 218/3/3
f 224/1/3 218/1/3 223/1/3
f 225/3/3 204/3/3 224/3/3
f 226/2/3 213/2/3 212/2/3
f 227/4/3 220/4/3 219/4/3
f 227/2/3 213/2/3 226/2/3
f 227/4/3 219/4/3 213/4/3
f 228/4/3 220/4/3 227/4/3
f 230/4/3 222/4/3 221/4/3
f 231/4/3 222/4/3 230/4/3
f 233/1/3 232/1/3 231/1/3
f 233/1/3 231/1/3 230/1/3
f 233/1/3 230/1/3 229/1/3
f 234/1/3 232/1/3 233/1/3
f 236/1/3 232/1/3 234/1/3
f 237/1/3 236/1/3 235/1/3
f 238/1/3 232/1/3 236/1/3
f 238/1/3 236/1/3 237/1/3
f 239/1/4 240/1/4 241/1/4
f 241/1/4 240/1/4 242/1/4
f 242/1/4 240/1/4 244/1/4
f 243/1/4 244/1/4 248/1/4
f 248/1/4 244/1/4 249/1/4
f 249/1/4 244/1/4 250/1/4
f 244/1/4 240/1/4 251/1/4
f 250/1/4 244/1/4 251/1/4
f 246/4/4 247/4/4 252/4/4
f 249/4/4 250/4/4 253/4/4
f 253/4/4 250/4/4 254/4/4
f 245/2/4 246/2/4 257/2/4
f 246/4/4 252/4/4 258/4/4
f 257/2/4 246/2/4 258/2/4
f 258/4/4 252/4/4 259/4/4
f 255/4/4 256/4/4 260/4/4
f 260/4/4 256/4/4 261/4/4
f 259/4/4 252/4/4 264/4/4
f 264/4/4 252/4/4 267/4/4
f 263/4/4 264/4/4 267/4/4
f 265/4/4 266/4/4 270/4/4
f 270/4/4 266/4/4 271/4/4
f 262/2/4 263/2/4 272/2/4
f 263/4/4 267/4/4 273/4/4
f 272/2/4 263/2/4 273/2/4
f 273/4/4 267/4/4 274/4/4
f 268/4/4 269/4/4 276/4/4
f 276/4/4 269/4/4 277/4/4
f 277/1/4 278/1/4 279/1/4
f 276/1/4 277/1/4 279/1/4
f 275/1/4 276/1/4 279/1/4
f 279/1/4 278/1/4 280/1/4
f 280/1/4 278/1/4 282/1/4
f 281/1/4 282/1/4 283/1/4
f 282/1/4 278/1/4 284/1/4
f 283/1/4 282/1/4 284/1/4
f 285/1/4 286/1/4 287/1/4
f 287/1/4 286/1/4 288/1/4
f 289/5/4 290/5/4 292/5/4
f 292/5/4 290/5/4 293/5/4
f 293/5/4 290/5/4 294/5/4
f 291/5/4 292/5/4 295/5/4
f 292/5/4 293/5/4 295/5/4
f 291/5/4 295/5/4 297/5/4
f 295/1/4 296/1/4 297/1/4
f 297/1/4 296/1/4 298/1/4
f 291/5/4 297/5/4 299/5/4
f 299/5/4 297/5/4 300/5/4
f 300/5/4 297/5/4 301/5/4
f 301/5/4 302/5/4 303/5/4
f 300/5/4 301/5/4 303/5/4
f 303/5/4 302/5/4 304/5/4
f 305/1/4 306/1/4 307/1/4
f 307/1/4 306/1/4 308/1/4
f 309/1/4 310/1/4 312/1/4
f 312/1/4 310/1/4 313/1/4
f 310/3/4 311/3/4 314/3/4
f 313/1/4 310/1/4 314/1/4
f 314/3/4 311/3/4 315/3/4
f 309/1/4 312/1/4 316/1/4
f 316/1/4 312/1/4 317/1/4
f 312/8/4 313/8/4 318/8/4
f 317/1/4 312/1/4 318/1/4
f 313/7/4 314/7/4 319/7/4
f 318/8/4 313/8/4 319/8/4
f 314/1/4 315/1/4 320/1/4
f 319/7/4 314/7/4 320/7/4
f 309/1/4 316/1/4 321/1/4
f 316/6/4 317/6/4 322/6/4
f 321/1/4 316/1/4 322/1/4
f 317/1/4 318/1/4 323/1/4
f 322/6/4 317/6/4 323/6/4
f 318/1/4 319/1/4 323/1/4
f 319/1/4 320/1/4 323/1/4
f 321/6/4 322/6/4 324/6/4
f 322/1/4 323/1/4 325/1/4
f 324/6/4 322/6/4 325/6/4
f 323/1/4 320/1/4 326/1/4
f 325/1/4 323/1/4 326/1/4
f 320/1/4 315/1/4 327/1/4
f 326/1/4 320/1/4 327/1/4
f 327/1/4 315/1/4 328/1/4
f 324/1/4 325/1/4 329/1/4
f 325/6/4 326/6/4 329/6/4
f 326/1/4 327/1/4 330/1/4
f 329/6/4 326/6/4 330/6/4
f 330/1/4 327/1/4 331/1/4
f 331/1/4 327/1/4 332/1/4
f 327/3/4 328/3/4 333/3/4
f 332/1/4 327/1/4 333/1/4
f 331/8/4 332/8/4 334/8/4
f 329/1/4 330/1/4 334/1/4
f 330/1/4 331/1/4 334/1/4
f 332/7/4 333/7/4 335/7/4
f 334/8/4 332/8/4 335/8/4
f 333/3/4 328/3/4 336/3/4
f 335/7/4 333/7/4 336/7/4
f 334/1/4 335/1/4 337/1/4
f 324/1/4 329/1/4 337/1/4
f 335/1/4 336/1/4 337/1/4
f 329/1/4 334/1/4 337/1/4
f 336/3/4 328/3/4 338/3/4
f 337/1/4 336/1/4 338/1/4
f 338/3/4 328/3/4 339/3/4
f 344/2/5 341/2/5 340/2/5
f 345/2/5 341/2/5 344/2/5
f 346/2/5 343/2/5 342/2/5
f 347/2/5 343/2/5 346/2/5
f 350/5/5 349/5/5 348/5/5
f 351/5/5 349/5/5 350/5/5
f 352/5/5 349/5/5 351/5/5
f 353/5/5 349/5/5 352/5/5
f 354/4/5 352/4/5 351/4/5
f 355/4/5 352/4/5 354/4/5
f 358/5/5 357/5/5 356/5/5
f 359/5/5 357/5/5 358/5/5
f 365/1/5 361/1/5 360/1/5
f 366/1/5 361/1/5 365/1/5
f 369/1/5 363/1/5 362/1/5
f 370/1/5 363/1/5 369/1/5
f 372/1/5 367/1/5 366/1/5
f 372/1/5 365/1/5 364/1/5
f 372/1/5 366/1/5 365/1/5
f 373/1/5 367/1/5 372/1/5
f 374/1/5 367/1/5 373/1/5
f 375/1/5 367/1/5 374/1/5
f 376/1/5 371/1/5 370/1/5
f 376/1/5 370/1/5 369/1/5
f 376/1/5 369/1/5 368/1/5
f 377/1/5 371/1/5 376/1/5
f 378/1/5 371/1/5 377/1/5
f 379/1/5 371/1/5 378/1/5
f 380/1/5 374/1/5 373/1/5
f 381/1/5 374/1/5 380/1/5
f 382/1/5 378/1/5 377/1/5
f 383/1/5 378/1/5 382/1/5
f 388/4/5 385/4/5 384/4/5
f 389/4/5 385/4/5 388/4/5
f 390/4/5 387/4/5 386/4/5
f 391/4/5 387/4/5 390/4/5
f 396/5/5 393/5/5 392/5/5
f 397/5/5 393/5/5 396/5/5
f 398/5/5 395/5/5 394/5/5
f 399/5/5 395/5/5 398/5/5
f 404/5/5 401/5/5 400/5/5
f 405/5/5 401/5/5 404/5/5
f 406/5/5 403/5/5 402/5/5
f 407/5/5 403/5/5 406/5/5
f 412/1/5 409/1/5 408/1/5
f 413/1/5 409/1/5 412/1/5
f 414/1/5 411/1/5 410/1/5
f 415/1/5 411/1/5 414/1/5
f 416/1/5 413/1/5 412/1/5
f 416/1/5 414/1/5 413/1/5
f 416/1/5 415/1/5 414/1/5
f 417/1/5 415/1/5 416/1/5
f 418/1/5 416/1/5 412/1/5
f 419/6/5 417/6/5 416/6/5
f 419/1/5 416/1/5 418/1/5
f 420/1/5 415/1/5 417/1/5
f 420/6/5 417/6/5 419/6/5
f 421/1/5 415/1/5 420/1/5
f 422/4/6 423/4/6 426/4/6
f 426/4/6 423/4/6 427/4/6
f 424/4/6 425/4/6 428/4/6
f 428/4/6 425/4/6 429/4/6
f 430/1/6 431/1/6 434/1/6
f 434/1/6 431/1/6 435/1/6
f 432/1/6 433/1/6 436/1/6
f 436/1/6 433/1/6 437/1/6
f 438/1/6 439/1/6 446/1/6
f 446/1/6 439/1/6 447/1/6
f 440/5/6 441/5/6 448/5/6
f 448/5/6 441/5/6 449/5/6
f 442/5/6 443/5/6 450/5/6
f 450/5/6 443/5/6 451/5/6
f 444/1/6 445/1/6 452/1/6
f 452/1/6 445/1/6 453/1/6
f 454/5/6 455/5/6 458/5/6
f 458/5/6 455/5/6 459/5/6
f 459/5/6 455/5/6 460/5/6
f 460/5/6 455/5/6 461/5/6
f 456/1/6 457/1/6 464/1/6
f 464/1/6 457/1/6 465/1/6
f 458/4/6 459/4/6 466/4/6
f 466/4/6 459/4/6 467/4/6
f 460/4/6 461/4/6 468/4/6
f 468/4/6 461/4/6 469/4/6
f 462/1/6 463/1/6 470/1/6
f 470/1/6 463/1/6 471/1/6
f 472/5/6 473/5/6 476/5/6
f 474/5/6 475/5/6 477/5/6
f 472/5/6 476/5/6 478/5/6
f 478/5/6 476/5/6 479/5/6
f 477/5/6 475/5/6 480/5/6
f 480/5/6 475/5/6 481/5/6
f 482/3/6 483/3/6 484/3/6
f 484/3/6 483/3/6 485/3/6
f 482/3/6 484/3/6 486/3/6
f 484/1/6 485/1/6 487/1/6
f 486/3/6 484/3/6 487/3/6
f 485/3/6 483/3/6 488/3/6
f 487/1/6 485/1/6 488/1/6
f 488/3/6 483/3/6 489/3/6
f 482/3/6 486/3/6 490/3/6
f 486/1/6 487/1/6 491/1/6
f 490/3/6 486/3/6 491/3/6
f 487/1/6 488/1/6 491/1/6
f 488/1/6 489/1/6 491/1/6
f 489/3/6 483/3/6 492/3/6
f 491/1/6 489/1/6 492/1/6
f 492/3/6 483/3/6 493/3/6
