# MagicaVoxel @ Ephtracy

# group
o 

# material
mtllib fonar.mtl
usemtl palette

# normals
vn -1 0 0
vn 1 0 0
vn 0 0 1
vn 0 0 -1
vn 0 -1 0
vn 0 1 0

# texcoords
vt 0.978516 0.5
vt 0.986328 0.5
vt 0.990234 0.5
vt 0.994141 0.5

# verts
v -1.2 1.2 -7.45058e-08
v -1.2 1.2 -0.6
v -1.2 1.3 0.0999999
v -1.2 1.3 -7.45058e-08
v -1.2 1.3 -0.6
v -1.2 1.3 -0.7
v -1.2 1.9 0.0999999
v -1.2 1.9 -7.45058e-08
v -1.2 1.9 -0.6
v -1.2 1.9 -0.7
v -1.2 2 -7.45058e-08
v -1.2 2 -0.6
v -0.8 1.3 -7.45058e-08
v -0.8 1.3 -0.6
v -0.8 1.9 -7.45058e-08
v -0.8 1.9 -0.6
v 0.2 1.4 -0.1
v 0.2 1.4 -0.5
v 0.2 1.6 -0.1
v 0.2 1.6 -0.4
v 0.2 1.7 -0.1
v 0.2 1.7 -0.3
v 0.2 1.7 -0.4
v 0.2 1.7 -0.5
v 0.2 1.8 -0.1
v 0.2 1.8 -0.3
v 0.2 1.9 -0.2
v 0.2 1.9 -0.4
v 0.2 2 -0.2
v 0.2 2 -0.4
v 1.5 1.6 -0.1
v 1.5 1.6 -0.5
v 1.5 1.7 -0.1
v 1.5 1.7 -0.3
v 1.5 1.8 -0.3
v 1.5 1.8 -0.5
v -0.7 1.2 -7.45058e-08
v -0.7 1.2 -0.6
v -0.7 1.3 0.0999999
v -0.7 1.3 -7.45058e-08
v -0.7 1.3 -0.2
v -0.7 1.3 -0.4
v -0.7 1.3 -0.6
v -0.7 1.3 -0.7
v -0.7 1.4 -0.2
v -0.7 1.4 -0.4
v -0.7 1.5 -7.45058e-08
v -0.7 1.5 -0.6
v -0.7 1.7 -7.45058e-08
v -0.7 1.7 -0.6
v -0.7 1.8 -0.2
v -0.7 1.8 -0.4
v -0.7 1.9 0.0999999
v -0.7 1.9 -7.45058e-08
v -0.7 1.9 -0.2
v -0.7 1.9 -0.4
v -0.7 1.9 -0.6
v -0.7 1.9 -0.7
v -0.7 2 -7.45058e-08
v -0.7 2 -0.6
v -0.6 1.3 -7.45058e-08
v -0.6 1.3 -0.1
v -0.6 1.3 -0.5
v -0.6 1.3 -0.6
v -0.6 1.4 -7.45058e-08
v -0.6 1.4 -0.1
v -0.6 1.4 -0.2
v -0.6 1.4 -0.4
v -0.6 1.4 -0.5
v -0.6 1.4 -0.6
v -0.6 1.5 -0.1
v -0.6 1.5 -0.5
v -0.6 1.7 -0.1
v -0.6 1.7 -0.5
v -0.6 1.8 -7.45058e-08
v -0.6 1.8 -0.1
v -0.6 1.8 -0.2
v -0.6 1.8 -0.4
v -0.6 1.8 -0.5
v -0.6 1.8 -0.6
v -0.6 1.9 -7.45058e-08
v -0.6 1.9 -0.1
v -0.6 1.9 -0.5
v -0.6 1.9 -0.6
v 0.5 1.9 -0.2
v 0.5 1.9 -0.4
v 0.5 2 -0.2
v 0.5 2 -0.4
v 1.4 1.6 -0.4
v 1.4 1.6 -0.5
v 1.4 1.7 -0.4
v 1.4 1.7 -0.5
v 1.5 1.3 -0.1
v 1.5 1.3 -0.5
v 1.5 1.4 -7.45058e-08
v 1.5 1.4 -0.1
v 1.5 1.4 -0.5
v 1.5 1.4 -0.6
v 1.5 1.8 -7.45058e-08
v 1.5 1.8 -0.1
v 1.5 1.8 -0.5
v 1.5 1.8 -0.6
v 1.5 1.9 -0.1
v 1.5 1.9 -0.5
v 1.6 1.4 -0.1
v 1.6 1.4 -0.5
v 1.6 1.8 -0.1
v 1.6 1.8 -0.5
v -1.2 1.3 0.0999999
v -1.2 1.9 0.0999999
v -1.1 1.3 0.0999999
v -1.1 1.9 0.0999999
v -0.7 1.3 0.0999999
v -0.7 1.9 0.0999999
v -1.2 1.2 -7.45058e-08
v -1.2 1.3 -7.45058e-08
v -1.2 1.9 -7.45058e-08
v -1.2 2 -7.45058e-08
v -1.1 1.2 -7.45058e-08
v -1.1 1.3 -7.45058e-08
v -1.1 1.9 -7.45058e-08
v -1.1 2 -7.45058e-08
v -0.7 1.2 -7.45058e-08
v -0.7 1.3 -7.45058e-08
v -0.7 1.5 -7.45058e-08
v -0.7 1.7 -7.45058e-08
v -0.7 1.9 -7.45058e-08
v -0.7 2 -7.45058e-08
v -0.6 1.3 -7.45058e-08
v -0.6 1.4 -7.45058e-08
v -0.6 1.8 -7.45058e-08
v -0.6 1.9 -7.45058e-08
v -0.5 1.4 -7.45058e-08
v -0.5 1.5 -7.45058e-08
v -0.5 1.7 -7.45058e-08
v -0.5 1.8 -7.45058e-08
v -0.3 1.4 -7.45058e-08
v -0.3 1.5 -7.45058e-08
v -0.3 1.7 -7.45058e-08
v -0.3 1.8 -7.45058e-08
v -0.2 1.4 -7.45058e-08
v -0.2 1.5 -7.45058e-08
v -0.2 1.7 -7.45058e-08
v -0.2 1.8 -7.45058e-08
v -0.0999999 1.4 -7.45058e-08
v -0.0999999 1.8 -7.45058e-08
v 1.5 1.4 -7.45058e-08
v 1.5 1.8 -7.45058e-08
v -0.6 1.3 -0.1
v -0.6 1.4 -0.1
v -0.6 1.8 -0.1
v -0.6 1.9 -0.1
v -0.5 1.3 -0.1
v -0.5 1.4 -0.1
v -0.5 1.8 -0.1
v -0.5 1.9 -0.1
v -0.3 1.3 -0.1
v -0.3 1.4 -0.1
v -0.3 1.8 -0.1
v -0.3 1.9 -0.1
v -0.2 1.3 -0.1
v -0.2 1.4 -0.1
v -0.2 1.8 -0.1
v -0.2 1.9 -0.1
v -0.0999999 1.3 -0.1
v -0.0999999 1.4 -0.1
v -0.0999999 1.8 -0.1
v -0.0999999 1.9 -0.1
v 1.5 1.3 -0.1
v 1.5 1.4 -0.1
v 1.5 1.8 -0.1
v 1.5 1.9 -0.1
v 1.6 1.4 -0.1
v 1.6 1.8 -0.1
v 0.2 1.9 -0.2
v 0.2 2 -0.2
v 0.5 1.9 -0.2
v 0.5 2 -0.2
v -0.7 1.4 -0.4
v -0.7 1.8 -0.4
v -0.6 1.4 -0.4
v -0.6 1.8 -0.4
v 0.2 1.6 -0.4
v 0.2 1.7 -0.4
v 1.4 1.6 -0.4
v 1.4 1.7 -0.4
v -0.6 1.4 -0.5
v -0.6 1.5 -0.5
v -0.6 1.7 -0.5
v -0.6 1.8 -0.5
v -0.5 1.4 -0.5
v -0.5 1.5 -0.5
v -0.5 1.7 -0.5
v -0.5 1.8 -0.5
v -0.3 1.4 -0.5
v -0.3 1.5 -0.5
v -0.3 1.7 -0.5
v -0.3 1.8 -0.5
v -0.2 1.4 -0.5
v -0.2 1.5 -0.5
v -0.2 1.7 -0.5
v -0.2 1.8 -0.5
v -0.0999999 1.4 -0.5
v -0.0999999 1.8 -0.5
v 0.2 1.4 -0.5
v 0.2 1.7 -0.5
v 1.4 1.6 -0.5
v 1.4 1.7 -0.5
v 1.5 1.6 -0.5
v 1.5 1.8 -0.5
v -1.2 1.3 -0.6
v -1.2 1.9 -0.6
v -1.1 1.3 -0.6
v -1.1 1.9 -0.6
v -0.8 1.3 -0.6
v -0.8 1.9 -0.6
v -1.2 1.3 -7.45058e-08
v -1.2 1.9 -7.45058e-08
v -1.1 1.3 -7.45058e-08
v -1.1 1.9 -7.45058e-08
v -0.8 1.3 -7.45058e-08
v -0.8 1.9 -7.45058e-08
v -0.6 1.4 -0.1
v -0.6 1.5 -0.1
v -0.6 1.7 -0.1
v -0.6 1.8 -0.1
v -0.5 1.4 -0.1
v -0.5 1.5 -0.1
v -0.5 1.7 -0.1
v -0.5 1.8 -0.1
v -0.3 1.4 -0.1
v -0.3 1.5 -0.1
v -0.3 1.7 -0.1
v -0.3 1.8 -0.1
v -0.2 1.4 -0.1
v -0.2 1.5 -0.1
v -0.2 1.7 -0.1
v -0.2 1.8 -0.1
v -0.0999999 1.4 -0.1
v -0.0999999 1.8 -0.1
v 0.2 1.4 -0.1
v 0.2 1.6 -0.1
v 0.2 1.7 -0.1
v 0.2 1.8 -0.1
v 1.5 1.6 -0.1
v 1.5 1.7 -0.1
v -0.7 1.4 -0.2
v -0.7 1.8 -0.2
v -0.6 1.4 -0.2
v -0.6 1.8 -0.2
v 0.2 1.7 -0.3
v 0.2 1.8 -0.3
v 1.5 1.7 -0.3
v 1.5 1.8 -0.3
v 0.2 1.9 -0.4
v 0.2 2 -0.4
v 0.5 1.9 -0.4
v 0.5 2 -0.4
v -0.6 1.3 -0.5
v -0.6 1.4 -0.5
v -0.6 1.8 -0.5
v -0.6 1.9 -0.5
v -0.5 1.3 -0.5
v -0.5 1.4 -0.5
v -0.5 1.8 -0.5
v -0.5 1.9 -0.5
v -0.3 1.3 -0.5
v -0.3 1.4 -0.5
v -0.3 1.8 -0.5
v -0.3 1.9 -0.5
v -0.2 1.3 -0.5
v -0.2 1.4 -0.5
v -0.2 1.8 -0.5
v -0.2 1.9 -0.5
v -0.0999999 1.3 -0.5
v -0.0999999 1.4 -0.5
v -0.0999999 1.8 -0.5
v -0.0999999 1.9 -0.5
v 1.5 1.3 -0.5
v 1.5 1.4 -0.5
v 1.5 1.8 -0.5
v 1.5 1.9 -0.5
v 1.6 1.4 -0.5
v 1.6 1.8 -0.5
v -1.2 1.2 -0.6
v -1.2 1.3 -0.6
v -1.2 1.9 -0.6
v -1.2 2 -0.6
v -1.1 1.2 -0.6
v -1.1 1.3 -0.6
v -1.1 1.9 -0.6
v -1.1 2 -0.6
v -0.7 1.2 -0.6
v -0.7 1.3 -0.6
v -0.7 1.5 -0.6
v -0.7 1.7 -0.6
v -0.7 1.9 -0.6
v -0.7 2 -0.6
v -0.6 1.3 -0.6
v -0.6 1.4 -0.6
v -0.6 1.8 -0.6
v -0.6 1.9 -0.6
v -0.5 1.4 -0.6
v -0.5 1.5 -0.6
v -0.5 1.7 -0.6
v -0.5 1.8 -0.6
v -0.3 1.4 -0.6
v -0.3 1.5 -0.6
v -0.3 1.7 -0.6
v -0.3 1.8 -0.6
v -0.2 1.4 -0.6
v -0.2 1.5 -0.6
v -0.2 1.7 -0.6
v -0.2 1.8 -0.6
v -0.0999999 1.4 -0.6
v -0.0999999 1.8 -0.6
v 1.5 1.4 -0.6
v 1.5 1.8 -0.6
v -1.2 1.3 -0.7
v -1.2 1.9 -0.7
v -1.1 1.3 -0.7
v -1.1 1.9 -0.7
v -0.7 1.3 -0.7
v -0.7 1.9 -0.7
v -1.2 1.2 -7.45058e-08
v -1.1 1.2 -7.45058e-08
v -0.7 1.2 -7.45058e-08
v -1.2 1.2 -0.6
v -1.1 1.2 -0.6
v -0.7 1.2 -0.6
v -1.2 1.3 0.0999999
v -1.1 1.3 0.0999999
v -0.7 1.3 0.0999999
v -1.2 1.3 -7.45058e-08
v -1.1 1.3 -7.45058e-08
v -0.7 1.3 -7.45058e-08
v -0.6 1.3 -7.45058e-08
v -0.6 1.3 -0.1
v -0.5 1.3 -0.1
v -0.3 1.3 -0.1
v -0.2 1.3 -0.1
v -0.0999999 1.3 -0.1
v 1.5 1.3 -0.1
v -0.7 1.3 -0.2
v -0.5 1.3 -0.2
v -0.3 1.3 -0.2
v -0.2 1.3 -0.2
v -0.7 1.3 -0.4
v -0.5 1.3 -0.4
v -0.3 1.3 -0.4
v -0.2 1.3 -0.4
v -0.6 1.3 -0.5
v -0.5 1.3 -0.5
v -0.3 1.3 -0.5
v -0.2 1.3 -0.5
v -0.0999999 1.3 -0.5
v 1.5 1.3 -0.5
v -1.2 1.3 -0.6
v -1.1 1.3 -0.6
v -0.7 1.3 -0.6
v -0.6 1.3 -0.6
v -1.2 1.3 -0.7
v -1.1 1.3 -0.7
v -0.7 1.3 -0.7
v -0.6 1.4 -7.45058e-08
v -0.5 1.4 -7.45058e-08
v -0.3 1.4 -7.45058e-08
v -0.2 1.4 -7.45058e-08
v -0.0999999 1.4 -7.45058e-08
v 1.5 1.4 -7.45058e-08
v -0.6 1.4 -0.1
v -0.5 1.4 -0.1
v -0.3 1.4 -0.1
v -0.2 1.4 -0.1
v -0.0999999 1.4 -0.1
v 1.5 1.4 -0.1
v 1.6 1.4 -0.1
v -0.6 1.4 -0.5
v -0.5 1.4 -0.5
v -0.3 1.4 -0.5
v -0.2 1.4 -0.5
v -0.0999999 1.4 -0.5
v 1.5 1.4 -0.5
v 1.6 1.4 -0.5
v -0.6 1.4 -0.6
v -0.5 1.4 -0.6
v -0.3 1.4 -0.6
v -0.2 1.4 -0.6
v -0.0999999 1.4 -0.6
v 1.5 1.4 -0.6
v 0.2 1.7 -0.1
v 1.5 1.7 -0.1
v 0.2 1.7 -0.3
v 1.5 1.7 -0.3
v -0.6 1.8 -0.1
v -0.5 1.8 -0.1
v -0.3 1.8 -0.1
v -0.2 1.8 -0.1
v -0.0999999 1.8 -0.1
v 0.2 1.8 -0.1
v -0.7 1.8 -0.2
v -0.6 1.8 -0.2
v -0.5 1.8 -0.2
v -0.3 1.8 -0.2
v -0.2 1.8 -0.2
v 0.2 1.8 -0.3
v 1.5 1.8 -0.3
v -0.7 1.8 -0.4
v -0.6 1.8 -0.4
v -0.5 1.8 -0.4
v -0.3 1.8 -0.4
v -0.2 1.8 -0.4
v -0.6 1.8 -0.5
v -0.5 1.8 -0.5
v -0.3 1.8 -0.5
v -0.2 1.8 -0.5
v -0.0999999 1.8 -0.5
v 1.5 1.8 -0.5
v -1.2 1.9 -7.45058e-08
v -1.1 1.9 -7.45058e-08
v -0.8 1.9 -7.45058e-08
v -1.2 1.9 -0.6
v -1.1 1.9 -0.6
v -0.8 1.9 -0.6
v -1.2 1.3 -7.45058e-08
v -1.1 1.3 -7.45058e-08
v -0.8 1.3 -7.45058e-08
v -1.2 1.3 -0.6
v -1.1 1.3 -0.6
v -0.8 1.3 -0.6
v -0.6 1.4 -0.1
v -0.5 1.4 -0.1
v -0.3 1.4 -0.1
v -0.2 1.4 -0.1
v -0.0999999 1.4 -0.1
v 0.2 1.4 -0.1
v -0.7 1.4 -0.2
v -0.6 1.4 -0.2
v -0.5 1.4 -0.2
v -0.3 1.4 -0.2
v -0.2 1.4 -0.2
v -0.7 1.4 -0.4
v -0.6 1.4 -0.4
v -0.5 1.4 -0.4
v -0.3 1.4 -0.4
v -0.2 1.4 -0.4
v -0.6 1.4 -0.5
v -0.5 1.4 -0.5
v -0.3 1.4 -0.5
v -0.2 1.4 -0.5
v -0.0999999 1.4 -0.5
v 0.2 1.4 -0.5
v 0.2 1.6 -0.1
v 1.5 1.6 -0.1
v 0.2 1.6 -0.4
v 1.4 1.6 -0.4
v 1.4 1.6 -0.5
v 1.5 1.6 -0.5
v 0.2 1.7 -0.4
v 1.4 1.7 -0.4
v 0.2 1.7 -0.5
v 1.4 1.7 -0.5
v -0.6 1.8 -7.45058e-08
v -0.5 1.8 -7.45058e-08
v -0.3 1.8 -7.45058e-08
v -0.2 1.8 -7.45058e-08
v -0.0999999 1.8 -7.45058e-08
v 1.5 1.8 -7.45058e-08
v -0.6 1.8 -0.1
v -0.5 1.8 -0.1
v -0.3 1.8 -0.1
v -0.2 1.8 -0.1
v -0.0999999 1.8 -0.1
v 1.5 1.8 -0.1
v 1.6 1.8 -0.1
v -0.6 1.8 -0.5
v -0.5 1.8 -0.5
v -0.3 1.8 -0.5
v -0.2 1.8 -0.5
v -0.0999999 1.8 -0.5
v 1.5 1.8 -0.5
v 1.6 1.8 -0.5
v -0.6 1.8 -0.6
v -0.5 1.8 -0.6
v -0.3 1.8 -0.6
v -0.2 1.8 -0.6
v -0.0999999 1.8 -0.6
v 1.5 1.8 -0.6
v -1.2 1.9 0.0999999
v -1.1 1.9 0.0999999
v -0.7 1.9 0.0999999
v -1.2 1.9 -7.45058e-08
v -1.1 1.9 -7.45058e-08
v -0.7 1.9 -7.45058e-08
v -0.6 1.9 -7.45058e-08
v -0.6 1.9 -0.1
v -0.5 1.9 -0.1
v -0.3 1.9 -0.1
v -0.2 1.9 -0.1
v -0.0999999 1.9 -0.1
v 1.5 1.9 -0.1
v -0.7 1.9 -0.2
v -0.5 1.9 -0.2
v -0.3 1.9 -0.2
v -0.2 1.9 -0.2
v 0.2 1.9 -0.2
v 0.5 1.9 -0.2
v -0.7 1.9 -0.4
v -0.5 1.9 -0.4
v -0.3 1.9 -0.4
v -0.2 1.9 -0.4
v 0.2 1.9 -0.4
v 0.5 1.9 -0.4
v -0.6 1.9 -0.5
v -0.5 1.9 -0.5
v -0.3 1.9 -0.5
v -0.2 1.9 -0.5
v -0.0999999 1.9 -0.5
v 1.5 1.9 -0.5
v -1.2 1.9 -0.6
v -1.1 1.9 -0.6
v -0.7 1.9 -0.6
v -0.6 1.9 -0.6
v -1.2 1.9 -0.7
v -1.1 1.9 -0.7
v -0.7 1.9 -0.7
v -1.2 2 -7.45058e-08
v -1.1 2 -7.45058e-08
v -0.7 2 -7.45058e-08
v 0.2 2 -0.2
v 0.5 2 -0.2
v 0.2 2 -0.4
v 0.5 2 -0.4
v -1.2 2 -0.6
v -1.1 2 -0.6
v -0.7 2 -0.6

# faces
f 4/3/1 2/3/1 1/3/1
f 5/3/1 2/3/1 4/3/1
f 7/3/1 4/3/1 3/3/1
f 8/3/1 4/3/1 7/3/1
f 9/3/1 6/3/1 5/3/1
f 10/3/1 6/3/1 9/3/1
f 11/3/1 9/3/1 8/3/1
f 12/3/1 9/3/1 11/3/1
f 15/4/1 14/4/1 13/4/1
f 16/4/1 14/4/1 15/4/1
f 19/4/1 18/4/1 17/4/1
f 20/4/1 18/4/1 19/4/1
f 23/4/1 18/4/1 20/4/1
f 24/4/1 18/4/1 23/4/1
f 25/4/1 22/4/1 21/4/1
f 26/4/1 22/4/1 25/4/1
f 29/2/1 28/2/1 27/2/1
f 30/2/1 28/2/1 29/2/1
f 33/4/1 32/4/1 31/4/1
f 34/4/1 32/4/1 33/4/1
f 35/4/1 32/4/1 34/4/1
f 36/4/1 32/4/1 35/4/1
f 37/4/2 38/4/2 40/4/2
f 40/4/2 38/4/2 41/4/2
f 41/4/2 38/4/2 42/4/2
f 42/4/2 38/4/2 43/4/2
f 39/4/2 40/4/2 47/4/2
f 43/4/2 44/4/2 48/4/2
f 39/4/2 47/4/2 49/4/2
f 48/4/2 44/4/2 50/4/2
f 45/4/2 46/4/2 51/4/2
f 51/4/2 46/4/2 52/4/2
f 39/4/2 49/4/2 53/4/2
f 53/4/2 49/4/2 54/4/2
f 50/4/2 44/4/2 57/4/2
f 57/4/2 44/4/2 58/4/2
f 55/4/2 56/4/2 59/4/2
f 54/4/2 55/4/2 59/4/2
f 56/4/2 57/4/2 59/4/2
f 59/4/2 57/4/2 60/4/2
f 61/1/2 62/1/2 65/1/2
f 65/1/2 62/1/2 66/1/2
f 63/1/2 64/1/2 69/1/2
f 69/1/2 64/1/2 70/1/2
f 66/4/2 67/4/2 71/4/2
f 68/4/2 69/4/2 72/4/2
f 71/4/2 67/4/2 73/4/2
f 68/4/2 72/4/2 74/4/2
f 73/4/2 67/4/2 76/4/2
f 76/4/2 67/4/2 77/4/2
f 68/4/2 74/4/2 78/4/2
f 78/4/2 74/4/2 79/4/2
f 75/1/2 76/1/2 81/1/2
f 81/1/2 76/1/2 82/1/2
f 79/1/2 80/1/2 83/1/2
f 83/1/2 80/1/2 84/1/2
f 85/2/2 86/2/2 87/2/2
f 87/2/2 86/2/2 88/2/2
f 89/4/2 90/4/2 91/4/2
f 91/4/2 90/4/2 92/4/2
f 93/4/2 94/4/2 96/4/2
f 96/4/2 94/4/2 97/4/2
f 95/4/2 96/4/2 99/4/2
f 99/4/2 96/4/2 100/4/2
f 97/4/2 98/4/2 101/4/2
f 101/4/2 98/4/2 102/4/2
f 100/4/2 101/4/2 103/4/2
f 103/4/2 101/4/2 104/4/2
f 105/4/2 106/4/2 107/4/2
f 107/4/2 106/4/2 108/4/2
f 111/3/3 110/3/3 109/3/3
f 112/3/3 110/3/3 111/3/3
f 113/4/3 112/4/3 111/4/3
f 114/4/3 112/4/3 113/4/3
f 119/3/3 116/3/3 115/3/3
f 120/3/3 116/3/3 119/3/3
f 121/3/3 118/3/3 117/3/3
f 122/3/3 118/3/3 121/3/3
f 123/4/3 120/4/3 119/4/3
f 124/4/3 120/4/3 123/4/3
f 127/4/3 122/4/3 121/4/3
f 128/4/3 122/4/3 127/4/3
f 129/1/3 125/1/3 124/1/3
f 130/1/3 125/1/3 129/1/3
f 131/1/3 127/1/3 126/1/3
f 132/1/3 127/1/3 131/1/3
f 133/1/3 125/1/3 130/1/3
f 134/3/3 126/3/3 125/3/3
f 134/1/3 125/1/3 133/1/3
f 135/1/3 131/1/3 126/1/3
f 135/3/3 126/3/3 134/3/3
f 136/1/3 131/1/3 135/1/3
f 137/2/3 134/2/3 133/2/3
f 138/3/3 135/3/3 134/3/3
f 138/2/3 134/2/3 137/2/3
f 139/2/3 136/2/3 135/2/3
f 139/3/3 135/3/3 138/3/3
f 140/2/3 136/2/3 139/2/3
f 141/1/3 138/1/3 137/1/3
f 142/3/3 139/3/3 138/3/3
f 142/1/3 138/1/3 141/1/3
f 143/1/3 140/1/3 139/1/3
f 143/3/3 139/3/3 142/3/3
f 144/1/3 140/1/3 143/1/3
f 145/3/3 142/3/3 141/3/3
f 145/3/3 143/3/3 142/3/3
f 145/3/3 144/3/3 143/3/3
f 146/3/3 144/3/3 145/3/3
f 147/4/3 146/4/3 145/4/3
f 148/4/3 146/4/3 147/4/3
f 153/1/3 150/1/3 149/1/3
f 154/1/3 150/1/3 153/1/3
f 155/1/3 152/1/3 151/1/3
f 156/1/3 152/1/3 155/1/3
f 157/2/3 154/2/3 153/2/3
f 158/2/3 154/2/3 157/2/3
f 159/2/3 156/2/3 155/2/3
f 160/2/3 156/2/3 159/2/3
f 161/1/3 158/1/3 157/1/3
f 162/1/3 158/1/3 161/1/3
f 163/1/3 160/1/3 159/1/3
f 164/1/3 160/1/3 163/1/3
f 165/3/3 162/3/3 161/3/3
f 166/3/3 162/3/3 165/3/3
f 167/3/3 164/3/3 163/3/3
f 168/3/3 164/3/3 167/3/3
f 169/4/3 166/4/3 165/4/3
f 170/4/3 166/4/3 169/4/3
f 171/4/3 168/4/3 167/4/3
f 172/4/3 168/4/3 171/4/3
f 173/4/3 171/4/3 170/4/3
f 174/4/3 171/4/3 173/4/3
f 177/2/3 176/2/3 175/2/3
f 178/2/3 176/2/3 177/2/3
f 181/4/3 180/4/3 179/4/3
f 182/4/3 180/4/3 181/4/3
f 185/4/3 184/4/3 183/4/3
f 186/4/3 184/4/3 185/4/3
f 191/1/3 188/1/3 187/1/3
f 192/3/3 189/3/3 188/3/3
f 192/1/3 188/1/3 191/1/3
f 193/1/3 190/1/3 189/1/3
f 193/3/3 189/3/3 192/3/3
f 194/1/3 190/1/3 193/1/3
f 195/2/3 192/2/3 191/2/3
f 196/3/3 193/3/3 192/3/3
f 196/2/3 192/2/3 195/2/3
f 197/2/3 194/2/3 193/2/3
f 197/3/3 193/3/3 196/3/3
f 198/2/3 194/2/3 197/2/3
f 199/1/3 196/1/3 195/1/3
f 200/3/3 197/3/3 196/3/3
f 200/1/3 196/1/3 199/1/3
f 201/1/3 198/1/3 197/1/3
f 201/3/3 197/3/3 200/3/3
f 202/1/3 198/1/3 201/1/3
f 203/3/3 200/3/3 199/3/3
f 203/3/3 201/3/3 200/3/3
f 203/3/3 202/3/3 201/3/3
f 204/3/3 202/3/3 203/3/3
f 205/4/3 204/4/3 203/4/3
f 206/4/3 204/4/3 205/4/3
f 208/4/3 204/4/3 206/4/3
f 209/4/3 208/4/3 207/4/3
f 210/4/3 204/4/3 208/4/3
f 210/4/3 208/4/3 209/4/3
f 213/3/3 212/3/3 211/3/3
f 214/3/3 212/3/3 213/3/3
f 215/4/3 214/4/3 213/4/3
f 216/4/3 214/4/3 215/4/3
f 217/3/4 218/3/4 219/3/4
f 219/3/4 218/3/4 220/3/4
f 219/4/4 220/4/4 221/4/4
f 221/4/4 220/4/4 222/4/4
f 223/1/4 224/1/4 227/1/4
f 224/3/4 225/3/4 228/3/4
f 227/1/4 224/1/4 228/1/4
f 225/1/4 226/1/4 229/1/4
f 228/3/4 225/3/4 229/3/4
f 229/1/4 226/1/4 230/1/4
f 227/2/4 228/2/4 231/2/4
f 228/3/4 229/3/4 232/3/4
f 231/2/4 228/2/4 232/2/4
f 229/2/4 230/2/4 233/2/4
f 232/3/4 229/3/4 233/3/4
f 233/2/4 230/2/4 234/2/4
f 231/1/4 232/1/4 235/1/4
f 232/3/4 233/3/4 236/3/4
f 235/1/4 232/1/4 236/1/4
f 233/1/4 234/1/4 237/1/4
f 236/3/4 233/3/4 237/3/4
f 237/1/4 234/1/4 238/1/4
f 235/3/4 236/3/4 239/3/4
f 236/3/4 237/3/4 239/3/4
f 237/3/4 238/3/4 239/3/4
f 239/3/4 238/3/4 240/3/4
f 239/4/4 240/4/4 241/4/4
f 241/4/4 240/4/4 242/4/4
f 242/4/4 240/4/4 243/4/4
f 243/4/4 240/4/4 244/4/4
f 242/4/4 243/4/4 245/4/4
f 245/4/4 243/4/4 246/4/4
f 247/4/4 248/4/4 249/4/4
f 249/4/4 248/4/4 250/4/4
f 251/4/4 252/4/4 253/4/4
f 253/4/4 252/4/4 254/4/4
f 255/2/4 256/2/4 257/2/4
f 257/2/4 256/2/4 258/2/4
f 259/1/4 260/1/4 263/1/4
f 263/1/4 260/1/4 264/1/4
f 261/1/4 262/1/4 265/1/4
f 265/1/4 262/1/4 266/1/4
f 263/2/4 264/2/4 267/2/4
f 267/2/4 264/2/4 268/2/4
f 265/2/4 266/2/4 269/2/4
f 269/2/4 266/2/4 270/2/4
f 267/1/4 268/1/4 271/1/4
f 271/1/4 268/1/4 272/1/4
f 269/1/4 270/1/4 273/1/4
f 273/1/4 270/1/4 274/1/4
f 271/3/4 272/3/4 275/3/4
f 275/3/4 272/3/4 276/3/4
f 273/3/4 274/3/4 277/3/4
f 277/3/4 274/3/4 278/3/4
f 275/4/4 276/4/4 279/4/4
f 279/4/4 276/4/4 280/4/4
f 277/4/4 278/4/4 281/4/4
f 281/4/4 278/4/4 282/4/4
f 280/4/4 281/4/4 283/4/4
f 283/4/4 281/4/4 284/4/4
f 285/3/4 286/3/4 289/3/4
f 289/3/4 286/3/4 290/3/4
f 287/3/4 288/3/4 291/3/4
f 291/3/4 288/3/4 292/3/4
f 289/4/4 290/4/4 293/4/4
f 293/4/4 290/4/4 294/4/4
f 291/4/4 292/4/4 297/4/4
f 297/4/4 292/4/4 298/4/4
f 294/1/4 295/1/4 299/1/4
f 299/1/4 295/1/4 300/1/4
f 296/1/4 297/1/4 301/1/4
f 301/1/4 297/1/4 302/1/4
f 300/1/4 295/1/4 303/1/4
f 295/3/4 296/3/4 304/3/4
f 303/1/4 295/1/4 304/1/4
f 296/1/4 301/1/4 305/1/4
f 304/3/4 296/3/4 305/3/4
f 305/1/4 301/1/4 306/1/4
f 303/2/4 304/2/4 307/2/4
f 304/3/4 305/3/4 308/3/4
f 307/2/4 304/2/4 308/2/4
f 305/2/4 306/2/4 309/2/4
f 308/3/4 305/3/4 309/3/4
f 309/2/4 306/2/4 310/2/4
f 307/1/4 308/1/4 311/1/4
f 308/3/4 309/3/4 312/3/4
f 311/1/4 308/1/4 312/1/4
f 309/1/4 310/1/4 313/1/4
f 312/3/4 309/3/4 313/3/4
f 313/1/4 310/1/4 314/1/4
f 311/3/4 312/3/4 315/3/4
f 312/3/4 313/3/4 315/3/4
f 313/3/4 314/3/4 315/3/4
f 315/3/4 314/3/4 316/3/4
f 315/4/4 316/4/4 317/4/4
f 317/4/4 316/4/4 318/4/4
f 319/3/4 320/3/4 321/3/4
f 321/3/4 320/3/4 322/3/4
f 321/4/4 322/4/4 323/4/4
f 323/4/4 322/4/4 324/4/4
f 328/3/5 326/3/5 325/3/5
f 329/4/5 327/4/5 326/4/5
f 329/3/5 326/3/5 328/3/5
f 330/4/5 327/4/5 329/4/5
f 334/3/5 332/3/5 331/3/5
f 335/4/5 333/4/5 332/4/5
f 335/3/5 332/3/5 334/3/5
f 336/4/5 333/4/5 335/4/5
f 338/1/5 337/1/5 336/1/5
f 344/1/5 338/1/5 336/1/5
f 344/1/5 339/1/5 338/1/5
f 345/2/5 340/2/5 339/2/5
f 345/1/5 339/1/5 344/1/5
f 346/1/5 341/1/5 340/1/5
f 346/2/5 340/2/5 345/2/5
f 347/3/5 342/3/5 341/3/5
f 347/1/5 341/1/5 346/1/5
f 348/3/5 346/3/5 345/3/5
f 348/3/5 345/3/5 344/3/5
f 348/3/5 347/3/5 346/3/5
f 349/3/5 347/3/5 348/3/5
f 350/3/5 347/3/5 349/3/5
f 351/3/5 342/3/5 347/3/5
f 351/3/5 347/3/5 350/3/5
f 352/1/5 349/1/5 348/1/5
f 353/2/5 350/2/5 349/2/5
f 353/1/5 349/1/5 352/1/5
f 354/1/5 351/1/5 350/1/5
f 354/2/5 350/2/5 353/2/5
f 355/3/5 342/3/5 351/3/5
f 355/1/5 351/1/5 354/1/5
f 356/4/5 343/4/5 342/4/5
f 356/3/5 342/3/5 355/3/5
f 357/4/5 343/4/5 356/4/5
f 360/1/5 352/1/5 348/1/5
f 361/1/5 352/1/5 360/1/5
f 362/3/5 359/3/5 358/3/5
f 363/4/5 360/4/5 359/4/5
f 363/3/5 359/3/5 362/3/5
f 364/4/5 360/4/5 363/4/5
f 371/1/5 366/1/5 365/1/5
f 372/2/5 367/2/5 366/2/5
f 372/1/5 366/1/5 371/1/5
f 373/1/5 368/1/5 367/1/5
f 373/2/5 367/2/5 372/2/5
f 374/3/5 369/3/5 368/3/5
f 374/1/5 368/1/5 373/1/5
f 375/4/5 370/4/5 369/4/5
f 375/3/5 369/3/5 374/3/5
f 376/4/5 370/4/5 375/4/5
f 383/4/5 377/4/5 376/4/5
f 384/4/5 377/4/5 383/4/5
f 385/1/5 379/1/5 378/1/5
f 386/2/5 380/2/5 379/2/5
f 386/1/5 379/1/5 385/1/5
f 387/1/5 381/1/5 380/1/5
f 387/2/5 380/2/5 386/2/5
f 388/3/5 382/3/5 381/3/5
f 388/1/5 381/1/5 387/1/5
f 389/4/5 383/4/5 382/4/5
f 389/3/5 382/3/5 388/3/5
f 390/4/5 383/4/5 389/4/5
f 393/4/5 392/4/5 391/4/5
f 394/4/5 392/4/5 393/4/5
f 402/1/5 396/1/5 395/1/5
f 403/2/5 397/2/5 396/2/5
f 403/1/5 396/1/5 402/1/5
f 404/1/5 398/1/5 397/1/5
f 404/2/5 397/2/5 403/2/5
f 405/3/5 399/3/5 398/3/5
f 405/1/5 398/1/5 404/1/5
f 406/4/5 400/4/5 399/4/5
f 408/3/5 402/3/5 401/3/5
f 408/3/5 403/3/5 402/3/5
f 408/3/5 404/3/5 403/3/5
f 408/3/5 405/3/5 404/3/5
f 409/3/5 405/3/5 408/3/5
f 410/3/5 405/3/5 409/3/5
f 411/3/5 405/3/5 410/3/5
f 412/3/5 399/3/5 405/3/5
f 412/3/5 405/3/5 411/3/5
f 413/1/5 410/1/5 409/1/5
f 414/2/5 411/2/5 410/2/5
f 414/1/5 410/1/5 413/1/5
f 415/1/5 412/1/5 411/1/5
f 415/2/5 411/2/5 414/2/5
f 416/3/5 399/3/5 412/3/5
f 416/1/5 412/1/5 415/1/5
f 417/4/5 407/4/5 406/4/5
f 417/3/5 399/3/5 416/3/5
f 417/4/5 406/4/5 399/4/5
f 418/4/5 407/4/5 417/4/5
f 422/3/5 420/3/5 419/3/5
f 423/4/5 421/4/5 420/4/5
f 423/3/5 420/3/5 422/3/5
f 424/4/5 421/4/5 423/4/5
f 425/3/6 426/3/6 428/3/6
f 426/4/6 427/4/6 429/4/6
f 428/3/6 426/3/6 429/3/6
f 429/4/6 427/4/6 430/4/6
f 431/1/6 432/1/6 438/1/6
f 432/2/6 433/2/6 439/2/6
f 438/1/6 432/1/6 439/1/6
f 433/1/6 434/1/6 440/1/6
f 439/2/6 433/2/6 440/2/6
f 434/3/6 435/3/6 441/3/6
f 440/1/6 434/1/6 441/1/6
f 437/3/6 438/3/6 442/3/6
f 438/3/6 439/3/6 442/3/6
f 440/3/6 441/3/6 442/3/6
f 439/3/6 440/3/6 442/3/6
f 442/3/6 441/3/6 443/3/6
f 443/3/6 441/3/6 444/3/6
f 444/3/6 441/3/6 445/3/6
f 441/3/6 435/3/6 446/3/6
f 445/3/6 441/3/6 446/3/6
f 443/1/6 444/1/6 447/1/6
f 444/2/6 445/2/6 448/2/6
f 447/1/6 444/1/6 448/1/6
f 445/1/6 446/1/6 449/1/6
f 448/2/6 445/2/6 449/2/6
f 446/3/6 435/3/6 450/3/6
f 449/1/6 446/1/6 450/1/6
f 435/4/6 436/4/6 451/4/6
f 450/3/6 435/3/6 451/3/6
f 451/4/6 436/4/6 452/4/6
f 453/4/6 454/4/6 455/4/6
f 455/4/6 454/4/6 456/4/6
f 456/4/6 454/4/6 457/4/6
f 457/4/6 454/4/6 458/4/6
f 459/4/6 460/4/6 461/4/6
f 461/4/6 460/4/6 462/4/6
f 463/1/6 464/1/6 469/1/6
f 464/2/6 465/2/6 470/2/6
f 469/1/6 464/1/6 470/1/6
f 465/1/6 466/1/6 471/1/6
f 470/2/6 465/2/6 471/2/6
f 466/3/6 467/3/6 472/3/6
f 471/1/6 466/1/6 472/1/6
f 467/4/6 468/4/6 473/4/6
f 472/3/6 467/3/6 473/3/6
f 473/4/6 468/4/6 474/4/6
f 474/4/6 475/4/6 481/4/6
f 481/4/6 475/4/6 482/4/6
f 476/1/6 477/1/6 483/1/6
f 477/2/6 478/2/6 484/2/6
f 483/1/6 477/1/6 484/1/6
f 478/1/6 479/1/6 485/1/6
f 484/2/6 478/2/6 485/2/6
f 479/3/6 480/3/6 486/3/6
f 485/1/6 479/1/6 486/1/6
f 480/4/6 481/4/6 487/4/6
f 486/3/6 480/3/6 487/3/6
f 487/4/6 481/4/6 488/4/6
f 489/3/6 490/3/6 492/3/6
f 490/4/6 491/4/6 493/4/6
f 492/3/6 490/3/6 493/3/6
f 493/4/6 491/4/6 494/4/6
f 494/1/6 495/1/6 496/1/6
f 494/1/6 496/1/6 502/1/6
f 496/1/6 497/1/6 502/1/6
f 497/2/6 498/2/6 503/2/6
f 502/1/6 497/1/6 503/1/6
f 498/1/6 499/1/6 504/1/6
f 503/2/6 498/2/6 504/2/6
f 499/3/6 500/3/6 505/3/6
f 504/1/6 499/1/6 505/1/6
f 500/4/6 501/4/6 506/4/6
f 506/4/6 501/4/6 507/4/6
f 503/3/6 504/3/6 508/3/6
f 502/3/6 503/3/6 508/3/6
f 504/3/6 505/3/6 508/3/6
f 508/3/6 505/3/6 509/3/6
f 509/3/6 505/3/6 510/3/6
f 505/3/6 500/3/6 511/3/6
f 510/3/6 505/3/6 511/3/6
f 500/4/6 506/4/6 512/4/6
f 507/4/6 501/4/6 513/4/6
f 508/1/6 509/1/6 514/1/6
f 509/2/6 510/2/6 515/2/6
f 514/1/6 509/1/6 515/1/6
f 510/1/6 511/1/6 516/1/6
f 515/2/6 510/2/6 516/2/6
f 511/3/6 500/3/6 517/3/6
f 516/1/6 511/1/6 517/1/6
f 500/4/6 512/4/6 518/4/6
f 517/3/6 500/3/6 518/3/6
f 512/4/6 513/4/6 518/4/6
f 513/4/6 501/4/6 519/4/6
f 518/4/6 513/4/6 519/4/6
f 508/1/6 514/1/6 522/1/6
f 522/1/6 514/1/6 523/1/6
f 520/3/6 521/3/6 524/3/6
f 521/4/6 522/4/6 525/4/6
f 524/3/6 521/3/6 525/3/6
f 525/4/6 522/4/6 526/4/6
f 530/2/6 531/2/6 532/2/6
f 532/2/6 531/2/6 533/2/6
f 527/3/6 528/3/6 534/3/6
f 528/4/6 529/4/6 535/4/6
f 534/3/6 528/3/6 535/3/6
f 535/4/6 529/4/6 536/4/6
